<svg width="41" height="41" viewBox="0 0 41 41" fill="none" xmlns="http://www.w3.org/2000/svg">
<circle cx="20.5" cy="20.5" r="18" fill="#F96232" stroke="#F96232"/>
<path d="M30.5086 19.3064H28.3704L28.0825 18.2081C27.8972 17.4963 27.6144 16.8135 27.2421 16.1791L26.665 15.198L28.1826 13.6805C27.7766 13.1901 27.3255 12.739 26.8352 12.3331L25.3176 13.8506L24.3365 13.2735C23.7022 12.9011 23.0194 12.6183 22.3076 12.4331L21.2092 12.1453V10.0065C20.5765 9.94681 19.9395 9.94681 19.3068 10.0065V12.1453L18.2085 12.4331C17.4902 12.6209 16.8081 12.9038 16.1795 13.2735L15.1984 13.8506L13.6809 12.3331C13.1906 12.739 12.7394 13.1901 12.3335 13.6805L13.851 15.198L13.2739 16.1791C12.9015 16.8134 12.6187 17.4962 12.4335 18.2081L12.1457 19.3064H10.0069C9.94773 19.9393 9.9479 20.5764 10.0074 21.2093H12.1457L12.4335 22.3076C12.6213 23.026 12.9042 23.708 13.2739 24.3366L13.851 25.3177L12.3335 26.8353C12.7394 27.3256 13.1906 27.7767 13.6809 28.1826L15.1984 26.6651L16.1795 27.2422C16.8138 27.6146 17.4966 27.8974 18.2085 28.0826L19.3068 28.3704V30.5092C19.9395 30.5689 20.5765 30.5689 21.2092 30.5092V28.3704L22.3076 28.0826C23.0194 27.8973 23.7021 27.6145 24.3365 27.2422L25.3176 26.6651L26.8352 28.1826C27.3255 27.7767 27.7766 27.3256 28.1826 26.8353L26.665 25.3177L27.2421 24.3366C27.6145 23.7023 27.8973 23.0195 28.0825 22.3076L28.3704 21.2093H30.5091C30.568 20.5773 30.5685 19.9409 30.5086 19.3064ZM19.7138 25.8718C17.5372 25.6658 15.6294 24.1557 14.9233 22.0914C14.1977 19.983 14.8106 17.5952 16.4531 16.0948C18.0957 14.59 20.5424 14.1973 22.5718 15.1142C24.5772 16.0163 25.8962 18.061 25.8962 20.2576C25.8967 23.5428 22.9842 26.1856 19.7138 25.8718Z" fill="white"/>
<path d="M25.0837 12.4939C24.9867 12.4941 24.8917 12.4655 24.811 12.4116C24.7302 12.3578 24.6673 12.2812 24.6301 12.1915C24.593 12.1018 24.5833 12.0031 24.6024 11.908C24.6214 11.8128 24.6683 11.7254 24.7371 11.6569L25.756 10.6375C25.8015 10.592 25.8555 10.5559 25.915 10.5313C25.9745 10.5066 26.0383 10.494 26.1026 10.494C26.167 10.494 26.2308 10.5066 26.2902 10.5313C26.3497 10.5559 26.4038 10.592 26.4493 10.6375C26.4948 10.6831 26.5309 10.7371 26.5556 10.7966C26.5802 10.8561 26.5929 10.9198 26.5929 10.9842C26.5929 11.0486 26.5802 11.1123 26.5556 11.1718C26.5309 11.2313 26.4948 11.2853 26.4493 11.3309L25.4304 12.3502C25.3849 12.3958 25.3309 12.432 25.2714 12.4567C25.2119 12.4813 25.1481 12.494 25.0837 12.4939ZM29.5314 14.9033C29.4344 14.9034 29.3396 14.8747 29.2589 14.8209C29.1782 14.767 29.1153 14.6905 29.0781 14.6009C29.041 14.5113 29.0312 14.4126 29.0501 14.3175C29.069 14.2224 29.1157 14.135 29.1843 14.0664C29.3574 13.8933 29.376 13.6167 29.2279 13.4226C29.1865 13.3716 29.1558 13.3129 29.1375 13.2498C29.1192 13.1868 29.1138 13.1207 29.1215 13.0555C29.1293 12.9903 29.15 12.9274 29.1826 12.8703C29.2151 12.8133 29.2587 12.7634 29.3109 12.7236C29.3631 12.6837 29.4227 12.6548 29.4863 12.6384C29.5499 12.6221 29.6161 12.6187 29.681 12.6284C29.746 12.6381 29.8083 12.6608 29.8643 12.695C29.9203 12.7293 29.9688 12.7744 30.007 12.8278C30.2218 13.1114 30.327 13.4629 30.3033 13.8178C30.2796 14.1727 30.1286 14.5072 29.8781 14.7597C29.8326 14.8053 29.7786 14.8415 29.7191 14.8661C29.6596 14.8908 29.5958 14.9034 29.5314 14.9033Z" fill="#383838"/>
<path d="M26.1026 11.4746C26.0055 11.4746 25.9106 11.4459 25.8299 11.392C25.7492 11.3381 25.6863 11.2614 25.6492 11.1718C25.612 11.0821 25.6024 10.9834 25.6214 10.8882C25.6404 10.793 25.6872 10.7056 25.7559 10.6371C26.0085 10.3866 26.3429 10.2357 26.6978 10.212C27.0527 10.1883 27.4042 10.2935 27.6878 10.5081C27.7412 10.5464 27.7863 10.5949 27.8206 10.6509C27.8548 10.7069 27.8775 10.7692 27.8872 10.8341C27.8969 10.8991 27.8935 10.9653 27.8772 11.0289C27.8608 11.0924 27.8319 11.1521 27.792 11.2043C27.7522 11.2564 27.7023 11.3001 27.6453 11.3326C27.5882 11.3652 27.5253 11.3859 27.4601 11.3937C27.3949 11.4014 27.3288 11.396 27.2658 11.3777C27.2027 11.3594 27.144 11.3287 27.093 11.2872C26.9984 11.2158 26.8813 11.1809 26.763 11.1889C26.6447 11.1969 26.5333 11.2473 26.4492 11.3309C26.4038 11.3765 26.3497 11.4127 26.2902 11.4373C26.2308 11.462 26.167 11.4746 26.1026 11.4746ZM28.512 15.9222C28.415 15.9225 28.32 15.8938 28.2392 15.84C28.1585 15.7862 28.0955 15.7095 28.0584 15.6199C28.0212 15.5302 28.0116 15.4315 28.0306 15.3363C28.0497 15.2411 28.0966 15.1537 28.1654 15.0853L29.1847 14.0664C29.2303 14.0209 29.2843 13.9847 29.3438 13.9601C29.4033 13.9355 29.467 13.9228 29.5314 13.9228C29.5958 13.9228 29.6595 13.9355 29.719 13.9601C29.7785 13.9847 29.8325 14.0209 29.878 14.0664C29.9236 14.1119 29.9597 14.166 29.9843 14.2254C30.009 14.2849 30.0216 14.3487 30.0216 14.413C30.0216 14.4774 30.009 14.5412 29.9843 14.6006C29.9597 14.6601 29.9236 14.7142 29.878 14.7597L28.8587 15.7786C28.8133 15.8243 28.7592 15.8605 28.6997 15.8851C28.6402 15.9098 28.5764 15.9224 28.512 15.9222ZM30.9479 18.3238H29.5069C29.3768 18.3238 29.2521 18.2722 29.1602 18.1802C29.0682 18.0883 29.0166 17.9636 29.0166 17.8335C29.0166 17.7035 29.0682 17.5788 29.1602 17.4868C29.2521 17.3948 29.3768 17.3432 29.5069 17.3432H30.9479C31.078 17.3432 31.2027 17.3948 31.2946 17.4868C31.3866 17.5788 31.4382 17.7035 31.4382 17.8335C31.4382 17.9636 31.3866 18.0883 31.2946 18.1802C31.2027 18.2722 31.078 18.3238 30.9479 18.3238ZM30.9479 23.1721C30.8179 23.1721 30.6932 23.1205 30.6012 23.0285C30.5093 22.9366 30.4576 22.8118 30.4576 22.6818C30.4576 22.5518 30.5093 22.427 30.6012 22.3351C30.6932 22.2431 30.8179 22.1915 30.9479 22.1915C31.1926 22.1915 31.4015 22.0091 31.4338 21.7669C31.4419 21.7028 31.4626 21.641 31.4949 21.5851C31.5271 21.5291 31.5701 21.4802 31.6215 21.441C31.6728 21.4019 31.7315 21.3734 31.794 21.3572C31.8565 21.341 31.9216 21.3374 31.9854 21.3467C32.0493 21.3553 32.1107 21.3764 32.1664 21.4088C32.222 21.4412 32.2708 21.4842 32.3098 21.5354C32.3488 21.5867 32.3774 21.6451 32.3938 21.7073C32.4103 21.7696 32.4143 21.8345 32.4056 21.8983C32.357 22.2506 32.1827 22.5735 31.9148 22.8076C31.647 23.0416 31.3036 23.1711 30.9479 23.1721Z" fill="#383838"/>
<path d="M31.9193 19.1731C31.8007 19.173 31.6862 19.1299 31.5969 19.0518C31.5077 18.9737 31.4497 18.866 31.4339 18.7485C31.4178 18.631 31.3597 18.5232 31.2704 18.4452C31.1811 18.3671 31.0665 18.324 30.9479 18.3238C30.8179 18.3238 30.6932 18.2722 30.6012 18.1802C30.5093 18.0883 30.4576 17.9636 30.4576 17.8335C30.4576 17.7035 30.5093 17.5788 30.6012 17.4868C30.6932 17.3949 30.8179 17.3432 30.9479 17.3432C31.3037 17.3443 31.6472 17.4739 31.9151 17.708C32.183 17.9421 32.3574 18.2651 32.4062 18.6175C32.4154 18.6869 32.4097 18.7574 32.3894 18.8243C32.3692 18.8913 32.3348 18.9532 32.2887 19.0058C32.2426 19.0584 32.1858 19.1005 32.1221 19.1294C32.0584 19.1582 31.9892 19.1731 31.9193 19.1731ZM30.9479 23.1721H29.5069C29.3769 23.1721 29.2521 23.1205 29.1602 23.0285C29.0682 22.9366 29.0166 22.8118 29.0166 22.6818C29.0166 22.5518 29.0682 22.427 29.1602 22.3351C29.2521 22.2431 29.3769 22.1915 29.5069 22.1915H30.9479C31.078 22.1915 31.2027 22.2431 31.2947 22.3351C31.3866 22.427 31.4383 22.5518 31.4383 22.6818C31.4383 22.8118 31.3866 22.9366 31.2947 23.0285C31.2027 23.1205 31.078 23.1721 30.9479 23.1721ZM29.5314 26.5926C29.467 26.5927 29.4032 26.58 29.3437 26.5554C29.2843 26.5307 29.2302 26.4945 29.1848 26.4489L28.1654 25.43C28.1199 25.3845 28.0837 25.3305 28.0591 25.271C28.0345 25.2115 28.0218 25.1478 28.0218 25.0834C28.0218 25.019 28.0345 24.9553 28.0591 24.8958C28.0837 24.8363 28.1199 24.7823 28.1654 24.7367C28.2109 24.6912 28.2649 24.6551 28.3244 24.6305C28.3839 24.6058 28.4477 24.5931 28.512 24.5931C28.5764 24.5931 28.6402 24.6058 28.6996 24.6305C28.7591 24.6551 28.8132 24.6912 28.8587 24.7367L29.8781 25.7556C29.9469 25.8241 29.9938 25.9115 30.0128 26.0067C30.0318 26.1018 30.0222 26.2005 29.985 26.2902C29.9479 26.3799 29.885 26.4565 29.8042 26.5103C29.7234 26.5642 29.6285 26.5928 29.5314 26.5926ZM26.7974 30.3068C26.4072 30.3074 26.0327 30.1533 25.7559 29.8782C25.6684 29.7854 25.6204 29.6621 25.6222 29.5345C25.624 29.4068 25.6755 29.2849 25.7656 29.1946C25.8558 29.1043 25.9777 29.0527 26.1053 29.0507C26.2329 29.0487 26.3563 29.0965 26.4493 29.1839C26.6223 29.3575 26.8999 29.3752 27.093 29.2276C27.1442 29.1885 27.2026 29.1599 27.2648 29.1434C27.327 29.1269 27.3918 29.1228 27.4556 29.1314C27.5194 29.14 27.5809 29.161 27.6365 29.1933C27.6922 29.2256 27.7409 29.2686 27.78 29.3198C27.819 29.3709 27.8476 29.4293 27.8641 29.4915C27.8806 29.5537 27.8847 29.6185 27.8762 29.6823C27.8676 29.7461 27.8466 29.8076 27.8142 29.8632C27.7819 29.9189 27.739 29.9676 27.6878 30.0067C27.4321 30.202 27.1191 30.3075 26.7974 30.3068Z" fill="#383838"/>
<path d="M29.6172 27.8806C29.5259 27.8804 29.4365 27.8547 29.3591 27.8064C29.2816 27.7582 29.2192 27.6892 29.1788 27.6074C29.1384 27.5256 29.1216 27.4341 29.1304 27.3432C29.1391 27.2524 29.1731 27.1658 29.2284 27.0932C29.3 26.9987 29.3351 26.8814 29.3271 26.7631C29.319 26.6448 29.2685 26.5334 29.1847 26.4494C29.0973 26.3564 29.0495 26.233 29.0515 26.1054C29.0534 25.9778 29.1051 25.856 29.1954 25.7658C29.2857 25.6756 29.4076 25.6241 29.5352 25.6223C29.6629 25.6205 29.7862 25.6685 29.879 25.7561C30.1296 26.0086 30.2806 26.343 30.3042 26.6979C30.3279 27.0528 30.2227 27.4044 30.008 27.6879C29.9621 27.7479 29.9029 27.7965 29.8351 27.83C29.7673 27.8634 29.6928 27.8807 29.6172 27.8806ZM26.1026 30.0214C26.0382 30.0214 25.9744 30.0088 25.9149 29.9841C25.8554 29.9595 25.8014 29.9233 25.7559 29.8777L24.737 28.8583C24.6915 28.8128 24.6554 28.7588 24.6308 28.6993C24.6061 28.6398 24.5935 28.576 24.5935 28.5117C24.5935 28.4473 24.6061 28.3835 24.6308 28.3241C24.6554 28.2646 24.6915 28.2105 24.737 28.165C24.7826 28.1195 24.8366 28.0834 24.8961 28.0587C24.9556 28.0341 25.0193 28.0214 25.0837 28.0214C25.1481 28.0214 25.2118 28.0341 25.2713 28.0587C25.3308 28.0834 25.3848 28.1195 25.4304 28.165L26.4492 29.1844C26.518 29.2529 26.5649 29.3402 26.584 29.4354C26.603 29.5306 26.5934 29.6293 26.5562 29.719C26.5191 29.8086 26.4561 29.8853 26.3754 29.9391C26.2946 29.9929 26.1996 30.0216 26.1026 30.0214ZM22.6821 31.4379C22.5521 31.4379 22.4274 31.3862 22.3354 31.2943C22.2435 31.2023 22.1918 31.0776 22.1918 30.9476V29.5065C22.1918 29.3765 22.2435 29.2518 22.3354 29.1598C22.4274 29.0679 22.5521 29.0162 22.6821 29.0162C22.8122 29.0162 22.9369 29.0679 23.0288 29.1598C23.1208 29.2518 23.1724 29.3765 23.1724 29.5065V30.9476C23.1724 31.0776 23.1208 31.2023 23.0288 31.2943C22.9369 31.3862 22.8122 31.4379 22.6821 31.4379ZM18.6836 32.4097C18.662 32.4097 18.6399 32.4082 18.6174 32.4053C18.2649 32.3565 17.9419 32.1821 17.7078 31.9142C17.4737 31.6463 17.3441 31.3029 17.343 30.9471C17.343 30.817 17.3947 30.6923 17.4866 30.6004C17.5786 30.5084 17.7033 30.4568 17.8333 30.4568C17.9634 30.4568 18.0881 30.5084 18.18 30.6004C18.272 30.6923 18.3237 30.817 18.3237 30.9471C18.3237 31.1918 18.5061 31.4006 18.7483 31.433C18.8722 31.4487 18.9855 31.5112 19.0649 31.6076C19.1443 31.7041 19.184 31.8272 19.1757 31.9518C19.1674 32.0765 19.1119 32.1933 19.0204 32.2784C18.929 32.3635 18.8085 32.4104 18.6836 32.4097Z" fill="#383838"/>
<path d="M21.8324 32.4097C21.7081 32.4096 21.5885 32.3623 21.4977 32.2773C21.407 32.1924 21.3519 32.0761 21.3436 31.9521C21.3353 31.828 21.3745 31.7055 21.4531 31.6092C21.5317 31.5129 21.644 31.4501 21.7672 31.4335C22.0094 31.4011 22.1918 31.1922 22.1918 30.9476C22.1918 30.8175 22.2435 30.6928 22.3354 30.6009C22.4274 30.5089 22.5521 30.4573 22.6821 30.4573C22.8122 30.4573 22.9369 30.5089 23.0288 30.6009C23.1208 30.6928 23.1725 30.8175 23.1725 30.9476C23.1713 31.3034 23.0418 31.6468 22.8077 31.9147C22.5735 32.1826 22.2506 32.357 21.8981 32.4058C21.876 32.4082 21.854 32.4097 21.8324 32.4097ZM17.8339 31.4379C17.7038 31.4379 17.5791 31.3862 17.4871 31.2943C17.3952 31.2023 17.3435 31.0776 17.3435 30.9476V29.5065C17.3435 29.3765 17.3952 29.2518 17.4871 29.1598C17.5791 29.0679 17.7038 29.0162 17.8339 29.0162C17.9639 29.0162 18.0886 29.0679 18.1806 29.1598C18.2725 29.2518 18.3242 29.3765 18.3242 29.5065V30.9476C18.3242 31.0776 18.2725 31.2023 18.1806 31.2943C18.0886 31.3862 17.9639 31.4379 17.8339 31.4379ZM14.4134 30.0214C14.3163 30.0216 14.2214 29.9929 14.1406 29.9391C14.0598 29.8853 13.9969 29.8087 13.9597 29.719C13.9226 29.6293 13.9129 29.5306 13.932 29.4354C13.951 29.3402 13.9979 29.2529 14.0667 29.1844L15.0856 28.165C15.1311 28.1195 15.1852 28.0834 15.2447 28.0587C15.3041 28.0341 15.3679 28.0214 15.4323 28.0214C15.4966 28.0214 15.5604 28.0341 15.6199 28.0587C15.6794 28.0834 15.7334 28.1195 15.7789 28.165C15.8244 28.2105 15.8606 28.2646 15.8852 28.3241C15.9098 28.3835 15.9225 28.4473 15.9225 28.5117C15.9225 28.576 15.9098 28.6398 15.8852 28.6993C15.8606 28.7588 15.8244 28.8128 15.7789 28.8583L14.76 29.8777C14.7146 29.9233 14.6605 29.9595 14.601 29.9841C14.5416 30.0088 14.4778 30.0214 14.4134 30.0214ZM10.8988 27.8806C10.8232 27.8808 10.7486 27.8634 10.6809 27.8299C10.6132 27.7964 10.5542 27.7476 10.5085 27.6874C10.2937 27.4039 10.1885 27.0523 10.2122 26.6974C10.2359 26.3425 10.3869 26.0081 10.6374 25.7556C10.7303 25.668 10.8536 25.62 10.9812 25.6218C11.1088 25.6236 11.2307 25.6751 11.3211 25.7653C11.4114 25.8555 11.463 25.9773 11.465 26.1049C11.467 26.2325 11.4192 26.3559 11.3317 26.4489C11.2481 26.5329 11.1976 26.6443 11.1896 26.7626C11.1815 26.8809 11.2165 26.9981 11.2881 27.0927C11.3436 27.1653 11.3776 27.252 11.3865 27.343C11.3953 27.4339 11.3785 27.5256 11.338 27.6075C11.2975 27.6894 11.2349 27.7584 11.1573 27.8067C11.0797 27.855 10.9902 27.8806 10.8988 27.8806Z" fill="#383838"/>
<path d="M13.7186 30.3067C13.3969 30.3074 13.084 30.2022 12.8282 30.0071C12.7748 29.9689 12.7297 29.9203 12.6954 29.8643C12.6612 29.8083 12.6385 29.746 12.6288 29.6811C12.6191 29.6162 12.6225 29.55 12.6388 29.4864C12.6552 29.4228 12.6841 29.3632 12.7239 29.311C12.7638 29.2588 12.8137 29.2152 12.8707 29.1826C12.9277 29.1501 12.9907 29.1293 13.0559 29.1216C13.1211 29.1139 13.1872 29.1193 13.2502 29.1376C13.3133 29.1559 13.372 29.1866 13.4229 29.228C13.6166 29.3751 13.8936 29.3575 14.0667 29.1844C14.1597 29.0969 14.2831 29.0491 14.4107 29.0511C14.5383 29.0531 14.6602 29.1047 14.7503 29.195C14.8405 29.2853 14.892 29.4073 14.8938 29.5349C14.8956 29.6625 14.8476 29.7858 14.76 29.8787C14.4757 30.1616 14.0981 30.3067 13.7186 30.3067ZM10.9846 26.5925C10.8875 26.5928 10.7926 26.5641 10.7118 26.5103C10.631 26.4564 10.5681 26.3798 10.5309 26.2901C10.4938 26.2005 10.4841 26.1018 10.5032 26.0066C10.5222 25.9114 10.5691 25.824 10.6379 25.7556L11.6573 24.7367C11.7028 24.6912 11.7569 24.655 11.8163 24.6304C11.8758 24.6058 11.9396 24.5931 12.0039 24.5931C12.0683 24.5931 12.1321 24.6058 12.1916 24.6304C12.251 24.655 12.3051 24.6912 12.3506 24.7367C12.3961 24.7822 12.4322 24.8362 12.4569 24.8957C12.4815 24.9552 12.4942 25.019 12.4942 25.0833C12.4942 25.1477 12.4815 25.2115 12.4569 25.2709C12.4322 25.3304 12.3961 25.3845 12.3506 25.43L11.3312 26.4489C11.2858 26.4945 11.2317 26.5306 11.1722 26.5553C11.1127 26.5799 11.049 26.5926 10.9846 26.5925ZM11.0096 23.1721H9.56853C9.43849 23.1721 9.31377 23.1204 9.22182 23.0285C9.12987 22.9365 9.07821 22.8118 9.07821 22.6817C9.07821 22.5517 9.12987 22.427 9.22182 22.335C9.31377 22.2431 9.43849 22.1914 9.56853 22.1914H11.0096C11.1396 22.1914 11.2643 22.2431 11.3563 22.335C11.4482 22.427 11.4999 22.5517 11.4999 22.6817C11.4999 22.8118 11.4482 22.9365 11.3563 23.0285C11.2643 23.1204 11.1396 23.1721 11.0096 23.1721ZM8.59672 19.173C8.52673 19.1731 8.45755 19.1582 8.39381 19.1293C8.33007 19.1004 8.27325 19.0582 8.22717 19.0055C8.1811 18.9529 8.14683 18.8909 8.12667 18.8239C8.10652 18.7569 8.10094 18.6863 8.11032 18.617C8.1591 18.2646 8.33348 17.9416 8.60139 17.7074C8.8693 17.4733 9.21273 17.3438 9.56853 17.3427C9.69857 17.3427 9.82329 17.3943 9.91524 17.4863C10.0072 17.5782 10.0588 17.7029 10.0588 17.833C10.0588 17.963 10.0072 18.0877 9.91524 18.1797C9.82329 18.2716 9.69857 18.3233 9.56853 18.3233C9.32386 18.3233 9.11498 18.5057 9.08262 18.7479C9.06673 18.8655 9.00875 18.9734 8.9194 19.0516C8.83006 19.1298 8.71542 19.1729 8.59672 19.173Z" fill="#383838"/>
<path d="M9.56804 23.1721C9.21225 23.171 8.86882 23.0414 8.60091 22.8073C8.333 22.5732 8.15862 22.2502 8.10983 21.8977C8.09254 21.7689 8.12707 21.6385 8.20585 21.535C8.28463 21.4316 8.40122 21.3637 8.53004 21.3461C8.59389 21.3372 8.65889 21.341 8.72128 21.3573C8.78366 21.3736 8.8422 21.4021 8.89349 21.4412C8.94479 21.4803 8.98783 21.5291 9.02012 21.5849C9.05242 21.6407 9.07333 21.7024 9.08165 21.7663C9.11401 22.0086 9.32288 22.191 9.56755 22.191C9.8387 22.191 10.0579 22.4101 10.0579 22.6813C10.0579 22.7457 10.0453 22.8094 10.0207 22.869C9.99616 22.9285 9.96009 22.9826 9.91461 23.0281C9.86912 23.0737 9.81511 23.1099 9.75564 23.1346C9.69618 23.1593 9.63243 23.172 9.56804 23.1721ZM11.0096 18.3238H9.56854C9.43849 18.3238 9.31378 18.2721 9.22183 18.1802C9.12987 18.0882 9.07822 17.9635 9.07822 17.8335C9.07822 17.7034 9.12987 17.5787 9.22183 17.4868C9.31378 17.3948 9.43849 17.3432 9.56854 17.3432H11.0096C11.1396 17.3432 11.2643 17.3948 11.3563 17.4868C11.4482 17.5787 11.4999 17.7034 11.4999 17.8335C11.4999 17.9635 11.4482 18.0882 11.3563 18.1802C11.2643 18.2721 11.1396 18.3238 11.0096 18.3238ZM15.4323 12.4939C15.3679 12.494 15.3041 12.4813 15.2446 12.4567C15.1851 12.432 15.1311 12.3958 15.0856 12.3502L14.0667 11.3309C14.0212 11.2853 13.9851 11.2313 13.9605 11.1718C13.9358 11.1123 13.9231 11.0486 13.9231 10.9842C13.9231 10.9198 13.9358 10.8561 13.9605 10.7966C13.9851 10.7371 14.0212 10.6831 14.0667 10.6375C14.1587 10.5456 14.2834 10.494 14.4134 10.494C14.4778 10.494 14.5415 10.5066 14.601 10.5313C14.6605 10.5559 14.7145 10.592 14.76 10.6375L15.7789 11.6569C15.8477 11.7254 15.8946 11.8128 15.9137 11.908C15.9327 12.0031 15.923 12.1018 15.8859 12.1915C15.8488 12.2812 15.7858 12.3578 15.705 12.4116C15.6243 12.4655 15.5293 12.4941 15.4323 12.4939ZM10.9846 14.9033C10.9201 14.9034 10.8563 14.8907 10.7967 14.8661C10.7371 14.8414 10.683 14.8053 10.6374 14.7597C10.3869 14.5072 10.2359 14.1727 10.2122 13.8178C10.1885 13.4629 10.2937 13.1114 10.5085 12.8278C10.5467 12.7744 10.5953 12.7293 10.6513 12.695C10.7073 12.6608 10.7696 12.6381 10.8345 12.6284C10.8994 12.6187 10.9656 12.6221 11.0292 12.6384C11.0928 12.6548 11.1524 12.6837 11.2046 12.7236C11.2568 12.7634 11.3004 12.8133 11.333 12.8703C11.3655 12.9274 11.3863 12.9903 11.394 13.0555C11.4017 13.1207 11.3963 13.1868 11.378 13.2498C11.3598 13.3129 11.329 13.3716 11.2876 13.4226C11.1395 13.6167 11.1582 13.8938 11.3312 14.0664C11.3995 14.135 11.446 14.2224 11.4648 14.3174C11.4836 14.4124 11.4738 14.5108 11.4367 14.6003C11.3997 14.6898 11.337 14.7663 11.2565 14.8203C11.1761 14.8742 11.0814 14.9031 10.9846 14.9033Z" fill="#383838"/>
<path d="M14.4134 11.4746C14.2834 11.4747 14.1587 11.4232 14.0667 11.3314C13.9825 11.248 13.8712 11.1977 13.753 11.1897C13.6347 11.1817 13.5176 11.2165 13.4229 11.2878C13.372 11.3292 13.3132 11.3599 13.2502 11.3782C13.1871 11.3965 13.1211 11.4019 13.0559 11.3942C12.9907 11.3864 12.9277 11.3657 12.8707 11.3331C12.8137 11.3006 12.7638 11.257 12.7239 11.2048C12.6841 11.1526 12.6552 11.0929 12.6388 11.0294C12.6225 10.9658 12.619 10.8996 12.6288 10.8346C12.6385 10.7697 12.6611 10.7074 12.6954 10.6514C12.7297 10.5954 12.7748 10.5469 12.8282 10.5086C13.1117 10.2937 13.4632 10.1884 13.8182 10.2121C14.1732 10.2357 14.5076 10.3869 14.76 10.6376C14.8283 10.7063 14.8748 10.7936 14.8936 10.8886C14.9124 10.9836 14.9026 11.0821 14.8655 11.1716C14.8285 11.2611 14.7658 11.3376 14.6853 11.3915C14.6049 11.4454 14.5102 11.4743 14.4134 11.4746ZM12.0039 15.9223C11.9395 15.9223 11.8758 15.9097 11.8163 15.885C11.7568 15.8604 11.7028 15.8242 11.6573 15.7786L10.6379 14.7597C10.5924 14.7142 10.5563 14.6601 10.5316 14.6007C10.507 14.5412 10.4943 14.4774 10.4943 14.4131C10.4943 14.3487 10.507 14.2849 10.5316 14.2254C10.5563 14.166 10.5924 14.1119 10.6379 14.0664C10.7299 13.9745 10.8545 13.9228 10.9846 13.9228C11.0489 13.9228 11.1127 13.9355 11.1722 13.9601C11.2317 13.9848 11.2857 14.0209 11.3312 14.0664L12.3506 15.0853C12.4194 15.1538 12.4663 15.2411 12.4853 15.3363C12.5044 15.4315 12.4947 15.5302 12.4576 15.6199C12.4204 15.7095 12.3575 15.7862 12.2767 15.84C12.196 15.8938 12.101 15.9225 12.0039 15.9223ZM17.8339 11.4996C17.7038 11.4996 17.5791 11.4479 17.4871 11.356C17.3952 11.264 17.3435 11.1393 17.3435 11.0093V9.5682C17.3435 9.43816 17.3952 9.31344 17.4871 9.22149C17.5791 9.12954 17.7038 9.07788 17.8339 9.07788C17.9639 9.07788 18.0886 9.12954 18.1806 9.22149C18.2725 9.31344 18.3242 9.43816 18.3242 9.5682V11.0093C18.3242 11.1393 18.2725 11.264 18.1806 11.356C18.0886 11.4479 17.9639 11.4996 17.8339 11.4996ZM22.6821 11.4996C22.5521 11.4996 22.4274 11.4479 22.3354 11.356C22.2435 11.264 22.1918 11.1393 22.1918 11.0093V9.5682C22.1918 9.43816 22.2435 9.31344 22.3354 9.22149C22.4274 9.12954 22.5521 9.07788 22.6821 9.07788C22.8122 9.07788 22.9369 9.12954 23.0288 9.22149C23.1208 9.31344 23.1725 9.43816 23.1725 9.5682V11.0093C23.1725 11.1393 23.1208 11.264 23.0288 11.356C22.9369 11.4479 22.8122 11.4996 22.6821 11.4996Z" fill="#383838"/>
<path d="M22.6822 10.0579C22.5521 10.0579 22.4274 10.0063 22.3354 9.91434C22.2435 9.82238 22.1918 9.69767 22.1918 9.56763C22.1918 9.32296 22.0094 9.11408 21.7672 9.08172C21.7034 9.07309 21.6419 9.05198 21.5863 9.01959C21.5306 8.9872 21.4819 8.94417 21.4429 8.89294C21.4039 8.84172 21.3753 8.78332 21.3589 8.72106C21.3424 8.65881 21.3384 8.59392 21.347 8.53011C21.3553 8.46614 21.3761 8.40444 21.4084 8.3486C21.4407 8.29275 21.4837 8.24387 21.535 8.20478C21.5864 8.1657 21.6449 8.13718 21.7073 8.1209C21.7697 8.10461 21.8348 8.10087 21.8986 8.10991C22.2511 8.15869 22.574 8.33307 22.8082 8.60098C23.0423 8.86889 23.1718 9.21232 23.173 9.56812C23.1729 9.63251 23.1602 9.69625 23.1355 9.75572C23.1108 9.81518 23.0746 9.8692 23.029 9.91468C22.9834 9.96017 22.9293 9.99623 22.8698 10.0208C22.8103 10.0454 22.7465 10.058 22.6822 10.0579ZM17.8339 10.0579C17.7038 10.0579 17.5791 10.0063 17.4872 9.91434C17.3952 9.82238 17.3436 9.69767 17.3436 9.56763C17.3447 9.21183 17.4742 8.8684 17.7083 8.60049C17.9425 8.33258 18.2655 8.1582 18.6179 8.10942C18.6818 8.10038 18.7468 8.10412 18.8092 8.12041C18.8716 8.13669 18.9302 8.16521 18.9815 8.20429C19.0328 8.24338 19.0758 8.29226 19.1081 8.34811C19.1404 8.40395 19.1612 8.46565 19.1695 8.52962C19.1868 8.65847 19.1523 8.78892 19.0735 8.89233C18.9947 8.99575 18.8781 9.06368 18.7493 9.08123C18.6318 9.09733 18.5241 9.15539 18.446 9.2447C18.368 9.33401 18.3249 9.44853 18.3247 9.56714C18.3247 9.63159 18.312 9.69541 18.2873 9.75496C18.2627 9.81451 18.2265 9.86862 18.1809 9.91419C18.1354 9.95977 18.0812 9.99592 18.0217 10.0206C17.9621 10.0453 17.8983 10.0579 17.8339 10.0579ZM15.4186 17.8501C15.3544 17.8499 15.291 17.8367 15.232 17.8115C15.173 17.7862 15.1197 17.7493 15.0753 17.703C15.029 17.6581 14.9922 17.6044 14.9671 17.545C14.942 17.4856 14.929 17.4218 14.929 17.3573C14.929 17.2929 14.942 17.229 14.9671 17.1697C14.9922 17.1103 15.029 17.0566 15.0753 17.0117C15.2568 16.8302 15.5853 16.8302 15.7667 17.0117C15.8598 17.0999 15.9089 17.2269 15.9089 17.3598C15.9089 17.4873 15.8598 17.6148 15.7667 17.703C15.673 17.7957 15.5505 17.8501 15.4186 17.8501Z" fill="#383838"/>
<path d="M20.2565 26.3778C19.0449 26.3778 17.8343 26.0267 16.8061 25.3261C14.8096 23.9649 13.7784 21.457 14.2403 19.0853C14.2526 19.0221 14.2773 18.9619 14.3129 18.9083C14.3484 18.8546 14.3942 18.8085 14.4477 18.7725C14.5011 18.7365 14.561 18.7114 14.6241 18.6986C14.6872 18.6858 14.7522 18.6856 14.8154 18.6979C14.8786 18.7103 14.9388 18.7349 14.9925 18.7705C15.0461 18.8061 15.0923 18.8519 15.1282 18.9053C15.1642 18.9587 15.1893 19.0187 15.2021 19.0818C15.2149 19.1449 15.2151 19.2099 15.2028 19.2731C14.815 21.2652 15.6814 23.3721 17.3587 24.5156C19.0611 25.6757 21.3642 25.6938 23.0876 24.5602C24.8111 23.4271 25.7069 21.3064 25.3171 19.2843C24.9342 17.2927 23.346 15.6628 21.3666 15.2274C20.6087 15.0637 19.8238 15.0717 19.0694 15.2507C18.315 15.4297 17.6102 15.7752 17.0067 16.262C16.9569 16.3029 16.8995 16.3335 16.8377 16.3521C16.776 16.3706 16.7113 16.3768 16.6472 16.3702C16.5831 16.3635 16.5209 16.3443 16.4643 16.3135C16.4077 16.2828 16.3577 16.2411 16.3173 16.1909C16.2766 16.141 16.2462 16.0836 16.2277 16.0219C16.2093 15.9602 16.2032 15.8955 16.2098 15.8315C16.2164 15.7674 16.2356 15.7053 16.2662 15.6487C16.2969 15.5921 16.3384 15.5421 16.3884 15.5015C17.1065 14.9219 17.9453 14.5104 18.8432 14.2972C19.7411 14.084 20.6754 14.0745 21.5775 14.2694C23.9344 14.7881 25.8241 16.7288 26.2806 19.0985C26.744 21.5065 25.678 24.0306 23.627 25.38C22.6249 26.0343 21.4533 26.3811 20.2565 26.3778ZM25.0832 12.4939C24.9963 12.494 24.911 12.4708 24.8361 12.4267C24.1235 12.0096 23.357 11.6921 22.5581 11.4834C22.4323 11.4503 22.3248 11.3687 22.2591 11.2565C22.1934 11.1442 22.1748 11.0105 22.2075 10.8847C22.2409 10.7591 22.3226 10.6518 22.4347 10.5862C22.5468 10.5205 22.6803 10.5018 22.8062 10.5341C23.6915 10.7658 24.541 11.1177 25.3309 11.58C25.424 11.6342 25.4967 11.7177 25.5376 11.8175C25.5785 11.9173 25.5854 12.0277 25.5572 12.1318C25.529 12.2359 25.4673 12.3278 25.3816 12.3932C25.2959 12.4587 25.1911 12.4941 25.0832 12.4939ZM29.6182 13.6153C29.5426 13.6154 29.4681 13.5981 29.4004 13.5645C29.3326 13.531 29.2736 13.4823 29.2279 13.4221C28.6151 12.6181 27.8971 11.9 27.0931 11.2872C26.9942 11.2068 26.9304 11.0911 26.9154 10.9645C26.9004 10.838 26.9352 10.7105 27.0126 10.6092C27.0899 10.5079 27.2037 10.4407 27.3297 10.4218C27.4558 10.4029 27.5842 10.4339 27.6878 10.5081C28.5613 11.1737 29.3414 11.9538 30.007 12.8273C30.0625 12.8999 30.0965 12.9866 30.1054 13.0775C30.1142 13.1684 30.0975 13.26 30.0571 13.3419C30.0166 13.4238 29.9541 13.4928 29.8766 13.5411C29.7991 13.5894 29.7096 13.6151 29.6182 13.6153ZM29.5059 18.3238C29.2887 18.3238 29.0896 18.1777 29.0318 17.9575C28.8229 17.1587 28.5055 16.3922 28.0884 15.6795C28.0548 15.6239 28.0326 15.5622 28.023 15.4979C28.0135 15.4336 28.0168 15.3681 28.0328 15.3051C28.0488 15.2421 28.0771 15.1829 28.1162 15.131C28.1553 15.0791 28.2043 15.0355 28.2604 15.0026C28.3165 14.9698 28.3785 14.9485 28.4429 14.9399C28.5073 14.9312 28.5728 14.9355 28.6355 14.9524C28.6983 14.9693 28.757 14.9985 28.8084 15.0383C28.8598 15.0781 28.9027 15.1277 28.9347 15.1843C29.3967 15.9743 29.7485 16.8237 29.9806 17.709C29.9994 17.7815 30.0014 17.8574 29.9864 17.9309C29.9714 18.0043 29.9398 18.0734 29.894 18.1327C29.8481 18.1921 29.7894 18.2401 29.7221 18.2733C29.6548 18.3064 29.5809 18.3237 29.5059 18.3238ZM31.9203 22.3229C31.8503 22.323 31.781 22.3082 31.7172 22.2793C31.6535 22.2504 31.5966 22.2082 31.5505 22.1555C31.5044 22.1029 31.4702 22.0409 31.45 21.9738C31.4299 21.9068 31.4244 21.8362 31.4339 21.7668C31.5692 20.7653 31.5692 19.75 31.4339 18.7484C31.4252 18.6846 31.4293 18.6197 31.4457 18.5575C31.4622 18.4952 31.4907 18.4368 31.5297 18.3856C31.6085 18.2821 31.7252 18.2142 31.8541 18.1968C31.9829 18.1794 32.1135 18.2139 32.2169 18.2927C32.3203 18.3715 32.3883 18.4882 32.4057 18.617C32.5528 19.7055 32.5528 20.8097 32.4057 21.8978C32.3899 22.0154 32.332 22.1232 32.2428 22.2014C32.1535 22.2796 32.0389 22.3227 31.9203 22.3229ZM28.5116 25.5737C28.4253 25.5736 28.3406 25.5507 28.266 25.5074C28.1914 25.4641 28.1295 25.4019 28.0866 25.3271C28.0438 25.2522 28.0214 25.1674 28.0218 25.0811C28.0222 24.9948 28.0453 24.9102 28.0889 24.8358C28.5061 24.1231 28.8235 23.3566 29.0323 22.5577C29.0657 22.4322 29.1473 22.3249 29.2595 22.2592C29.3716 22.1936 29.5051 22.1749 29.631 22.2071C29.8928 22.2763 30.0497 22.544 29.9815 22.8058C29.7498 23.6912 29.3979 24.5406 28.9357 25.3305C28.8924 25.4046 28.8305 25.466 28.7561 25.5087C28.6817 25.5514 28.5973 25.5738 28.5116 25.5737ZM27.3912 30.1077C27.2886 30.1078 27.1885 30.0758 27.105 30.016C27.0216 29.9563 26.959 29.8719 26.9261 29.7747C26.8932 29.6775 26.8916 29.5724 26.9215 29.4742C26.9515 29.3761 27.0115 29.2898 27.0931 29.2275C27.8971 28.6148 28.6151 27.8967 29.2279 27.0927C29.3083 26.9938 29.424 26.9301 29.5506 26.915C29.6772 26.9 29.8046 26.9349 29.9059 27.0122C30.0072 27.0895 30.0745 27.2033 30.0933 27.3293C30.1122 27.4554 30.0812 27.5838 30.007 27.6875C29.3414 28.561 28.5613 29.341 27.6878 30.0067C27.6028 30.0722 27.4985 30.1077 27.3912 30.1077ZM22.6817 29.9964C22.5633 29.9947 22.4496 29.9505 22.3613 29.8717C22.273 29.7929 22.2161 29.6849 22.2011 29.5675C22.1861 29.4501 22.2139 29.3313 22.2795 29.2328C22.3451 29.1343 22.444 29.0628 22.5581 29.0314C23.357 28.8225 24.1235 28.5051 24.8361 28.088C24.9482 28.0246 25.0808 28.0078 25.2052 28.0413C25.3296 28.0748 25.4358 28.1559 25.5008 28.2671C25.5659 28.3783 25.5846 28.5106 25.5529 28.6355C25.5212 28.7603 25.4416 28.8677 25.3313 28.9343C24.5413 29.3963 23.6919 29.7482 22.8067 29.9802C22.7659 29.991 22.7239 29.9965 22.6817 29.9964ZM20.258 32.5156C19.7098 32.5156 19.1621 32.4789 18.6174 32.4053C18.3487 32.369 18.1604 32.1219 18.1972 31.8537C18.234 31.5855 18.4781 31.3962 18.7488 31.4335C19.7505 31.5693 20.7655 31.5693 21.7672 31.4335C21.831 31.4249 21.8959 31.4289 21.9582 31.4453C22.0204 31.4618 22.0788 31.4903 22.13 31.5294C22.1813 31.5684 22.2243 31.6171 22.2567 31.6728C22.2891 31.7284 22.3102 31.7899 22.3188 31.8537C22.3274 31.9175 22.3234 31.9824 22.307 32.0447C22.2905 32.1069 22.262 32.1653 22.223 32.2165C22.1839 32.2678 22.1352 32.3108 22.0796 32.3432C22.0239 32.3756 21.9624 32.3967 21.8986 32.4053C21.3539 32.4789 20.8062 32.5156 20.258 32.5156ZM17.8343 29.9964C17.7932 29.9964 17.7515 29.991 17.7098 29.9807C16.8245 29.749 15.975 29.3971 15.1851 28.9348C15.1286 28.9028 15.079 28.8599 15.0392 28.8085C14.9994 28.7572 14.9701 28.6984 14.9532 28.6357C14.9363 28.5729 14.9321 28.5074 14.9407 28.443C14.9493 28.3786 14.9707 28.3166 15.0035 28.2605C15.0363 28.2044 15.08 28.1554 15.1319 28.1163C15.1838 28.0773 15.243 28.0489 15.306 28.0329C15.3689 28.0169 15.4345 28.0136 15.4988 28.0231C15.563 28.0327 15.6248 28.0549 15.6804 28.0885C16.393 28.5057 17.1595 28.8231 17.9584 29.0319C18.2202 29.101 18.3771 29.3688 18.309 29.6306C18.2501 29.8503 18.0516 29.9964 17.8343 29.9964ZM13.1248 30.1077C13.0175 30.1079 12.9132 30.0726 12.8282 30.0072C11.9547 29.3415 11.1746 28.5615 10.509 27.6879C10.4348 27.5843 10.4038 27.4559 10.4227 27.3298C10.4415 27.2038 10.5088 27.09 10.6101 27.0127C10.7114 26.9354 10.8388 26.9005 10.9654 26.9155C11.092 26.9306 11.2077 26.9943 11.2881 27.0932C11.9009 27.8972 12.6189 28.6152 13.4229 29.228C13.5043 29.2903 13.5641 29.3766 13.594 29.4747C13.6238 29.5727 13.6221 29.6777 13.5892 29.7747C13.5563 29.8718 13.4938 29.9561 13.4105 30.0159C13.3272 30.0756 13.2273 30.1077 13.1248 30.1077ZM12.0044 25.5737C11.9188 25.5738 11.8346 25.5515 11.7602 25.5089C11.6859 25.4663 11.624 25.4049 11.5808 25.331C11.1189 24.541 10.767 23.6916 10.535 22.8063C10.4663 22.5445 10.6237 22.2768 10.8855 22.2076C11.0114 22.1752 11.145 22.1939 11.2571 22.2595C11.3693 22.3252 11.4509 22.4326 11.4842 22.5582C11.6931 23.3571 12.0105 24.1236 12.4276 24.8362C12.4709 24.9107 12.4938 24.9953 12.4941 25.0815C12.4943 25.1677 12.4718 25.2524 12.429 25.3271C12.3861 25.4019 12.3243 25.464 12.2497 25.5073C12.1752 25.5506 12.0906 25.5735 12.0044 25.5737ZM8.59574 22.3229C8.47716 22.3227 8.36264 22.2797 8.27339 22.2016C8.18415 22.1235 8.12621 22.0158 8.11032 21.8982C7.96323 20.8097 7.96323 19.7055 8.11032 18.6175C8.12775 18.4886 8.19565 18.372 8.2991 18.2932C8.40255 18.2144 8.53306 18.1799 8.66193 18.1973C8.7908 18.2147 8.90747 18.2826 8.98628 18.3861C9.06508 18.4895 9.09956 18.62 9.08214 18.7489C8.94681 19.7505 8.94681 20.7657 9.08214 21.7673C9.09144 21.8366 9.0858 21.9071 9.06561 21.9741C9.04542 22.0411 9.01114 22.1029 8.96507 22.1555C8.91901 22.2081 8.86222 22.2503 8.79851 22.2792C8.73481 22.308 8.66567 22.3229 8.59574 22.3229ZM11.0101 18.3238C10.9351 18.3237 10.8612 18.3065 10.7939 18.2734C10.7266 18.2404 10.6678 18.1924 10.6219 18.1331C10.5761 18.0738 10.5444 18.0048 10.5293 17.9313C10.5143 17.8579 10.5162 17.782 10.535 17.7094C10.7667 16.8241 11.1186 15.9746 11.5808 15.1848C11.6128 15.1282 11.6558 15.0786 11.7071 15.0388C11.7585 14.999 11.8172 14.9698 11.88 14.9529C11.9427 14.936 12.0082 14.9317 12.0726 14.9403C12.137 14.949 12.1991 14.9703 12.2551 15.0031C12.3112 15.0359 12.3602 15.0796 12.3993 15.1315C12.4384 15.1834 12.4667 15.2426 12.4827 15.3056C12.4987 15.3686 12.5021 15.4341 12.4925 15.4984C12.483 15.5627 12.4607 15.6244 12.4271 15.68C12.0099 16.3926 11.6925 17.1591 11.4837 17.958C11.4562 18.0627 11.3948 18.1553 11.3091 18.2215C11.2234 18.2876 11.1183 18.3236 11.0101 18.3238ZM15.4328 12.4939C15.3248 12.4944 15.2198 12.4592 15.1339 12.3939C15.048 12.3285 14.9861 12.2366 14.9578 12.1325C14.9296 12.0283 14.9365 11.9177 14.9775 11.8179C15.0185 11.7181 15.0913 11.6346 15.1847 11.5804C15.9747 11.1185 16.8241 10.7666 17.7093 10.5346C17.8352 10.5023 17.9687 10.521 18.0808 10.5867C18.1929 10.6523 18.2746 10.7596 18.308 10.8852C18.3766 11.147 18.2192 11.4147 17.9574 11.4838C17.1585 11.6927 16.3921 12.0101 15.6794 12.4272C15.6046 12.471 15.5194 12.494 15.4328 12.4939ZM10.8978 13.6153C10.8065 13.615 10.7171 13.5893 10.6397 13.5411C10.5622 13.4928 10.4998 13.4239 10.4594 13.342C10.4189 13.2602 10.4022 13.1687 10.4109 13.0779C10.4197 12.987 10.4537 12.9004 10.509 12.8278C11.1746 11.9543 11.9547 11.1742 12.8282 10.5086C12.9318 10.4344 13.0602 10.4034 13.1863 10.4223C13.3123 10.4412 13.4261 10.5084 13.5034 10.6097C13.5808 10.711 13.6156 10.8385 13.6006 10.965C13.5856 11.0916 13.5218 11.2073 13.4229 11.2877C12.6189 11.9005 11.9009 12.6186 11.2881 13.4226C11.2423 13.4826 11.1832 13.5312 11.1155 13.5647C11.0478 13.5981 10.9733 13.6154 10.8978 13.6153ZM21.8334 9.08618C21.8118 9.08618 21.7893 9.08471 21.7672 9.08177C20.7657 8.94595 19.7503 8.94595 18.7488 9.08177C18.6199 9.0992 18.4894 9.06471 18.386 8.98591C18.2825 8.90711 18.2146 8.79044 18.1972 8.66157C18.1798 8.5327 18.2142 8.40218 18.293 8.29873C18.3718 8.19529 18.4885 8.12738 18.6174 8.10996C19.7061 7.96335 20.8095 7.96335 21.8981 8.10996C22.0228 8.12468 22.1371 8.18672 22.2174 8.28328C22.2976 8.37983 22.3378 8.50352 22.3295 8.62881C22.3211 8.7541 22.265 8.87141 22.1727 8.95653C22.0804 9.04164 21.9589 9.08805 21.8334 9.08618Z" fill="#383838"/>
</svg>
